<?xml version="1.0" standalone="no"?>
<!DOCTYPE svg PUBLIC "-//W3C//DTD SVG 20010904//EN"
 "http://www.w3.org/TR/2001/REC-SVG-20010904/DTD/svg10.dtd">
<svg version="1.0" xmlns="http://www.w3.org/2000/svg"
 width="256.000000pt" height="256.000000pt" viewBox="0 0 256.000000 256.000000"
 preserveAspectRatio="xMidYMid meet">

<g transform="translate(0.000000,256.000000) scale(0.100000,-0.100000)"
fill="#000000" stroke="none">
<path d="M1145 1904 c-93 -25 -196 -61 -254 -90 -38 -19 -75 -32 -83 -29 -10
4 -29 -12 -54 -44 -21 -28 -40 -51 -43 -51 -3 0 -22 17 -43 37 -54 53 -47 28
12 -42 46 -55 50 -63 49 -110 -1 -44 -2 -46 -9 -19 -15 65 -17 67 -41 45 -12
-11 -26 -18 -32 -14 -5 3 -4 9 3 13 7 4 10 13 6 19 -5 7 -1 9 8 5 22 -9 20 -1
-13 48 -16 24 -32 60 -36 81 -6 33 -9 35 -20 21 -13 -19 -20 -18 -105 16 -30
12 -75 26 -100 30 -25 4 -53 11 -63 15 -14 6 -17 2 -17 -18 0 -14 -11 -38 -24
-54 -27 -32 -23 -47 12 -56 22 -5 23 -5 8 18 -15 22 -15 25 3 34 13 8 28 5 57
-9 21 -11 35 -20 31 -20 -5 0 4 -11 18 -24 15 -14 24 -30 20 -35 -10 -17 -47
-12 -74 8 -22 17 -26 17 -40 4 -13 -14 -12 -18 14 -39 28 -22 28 -24 8 -24
-12 0 -28 6 -35 13 -12 11 -63 37 -73 37 -3 0 -5 -10 -5 -23 0 -13 -7 -32 -15
-43 -22 -29 -19 -37 28 -90 42 -47 87 -141 102 -214 16 -76 53 -125 165 -214
92 -72 110 -91 114 -118 22 -152 39 -203 95 -287 10 -14 30 -45 46 -69 15 -23
43 -51 61 -63 40 -24 43 -47 19 -157 -8 -39 -19 -128 -25 -199 -5 -71 -14
-143 -19 -161 l-10 -32 218 0 217 0 -4 225 c-3 158 -1 229 7 238 11 15 97 17
119 3 8 -5 12 -41 12 -111 0 -82 -4 -115 -22 -160 -22 -58 -22 -68 9 -177 4
-17 24 -18 229 -18 123 0 224 2 224 5 0 4 -7 20 -16 36 -9 18 -19 79 -25 150
-5 67 -16 155 -24 197 -22 113 -20 136 12 157 41 27 66 58 116 143 57 97 75
144 83 228 4 35 12 70 18 78 6 8 61 51 121 96 109 81 165 139 165 169 0 34 62
147 98 179 l37 32 -32 -6 c-25 -5 -33 -2 -42 15 -21 38 19 114 50 95 9 -5 10
-2 6 10 -4 10 -7 20 -7 23 0 3 -6 0 -14 -6 -18 -15 -54 1 -119 51 -41 32 -56
38 -98 38 -26 0 -64 -8 -84 -17 -26 -12 -38 -14 -47 -5 -26 26 -107 -71 -96
-116 3 -11 -8 -33 -29 -58 l-35 -39 6 84 c4 46 13 93 21 104 12 17 12 23 -2
43 -8 13 -24 24 -34 24 -22 0 -41 32 -33 54 5 12 0 16 -19 16 -14 0 -45 11
-68 25 -91 52 -303 101 -320 74 -6 -10 -13 -11 -31 -2 -36 18 -179 35 -213 27z
m160 -43 c0 -8 -6 -16 -14 -19 -8 -3 -11 0 -7 7 4 6 2 11 -3 11 -6 0 -11 5
-11 11 0 6 8 9 18 7 9 -2 17 -10 17 -17z m-126 -10 c8 -5 9 -11 3 -15 -13 -8
-42 3 -42 15 0 11 21 11 39 0z m251 -11 c0 -5 -2 -10 -4 -10 -3 0 -8 5 -11 10
-3 6 -1 10 4 10 6 0 11 -4 11 -10z m-80 -10 c0 -5 11 -10 25 -10 14 0 25 -4
25 -9 0 -5 20 -3 45 5 62 18 130 20 149 5 9 -8 16 -29 16 -47 0 -32 -2 -34
-27 -29 l-28 6 24 -14 c15 -9 20 -17 12 -21 -6 -4 -11 -22 -11 -39 0 -53 -13
-63 -48 -38 -37 26 -41 26 -35 1 3 -11 10 -17 15 -14 6 4 7 -2 3 -17 -7 -21
-6 -22 9 -10 14 12 16 12 10 -3 -4 -10 -7 -27 -8 -39 -1 -29 -60 -39 -190 -29
-93 6 -101 9 -102 28 -1 12 -5 28 -9 35 -6 11 -5 12 6 2 7 -7 20 -13 28 -13
10 0 8 7 -9 24 -20 23 -24 23 -38 9 -14 -14 -18 -13 -35 8 -16 20 -17 24 -4
27 9 2 13 10 10 23 -4 15 -2 18 13 12 13 -5 16 -3 11 10 -3 9 -4 24 -1 32 5
13 10 12 34 -5 35 -25 39 -25 70 1 24 20 24 20 2 9 -30 -15 -77 -5 -63 13 64
80 101 112 101 87z m-104 -20 c32 13 31 -3 -2 -29 -34 -27 -38 -26 -52 4 -9
20 -8 26 6 34 12 7 18 6 20 -4 2 -11 9 -12 28 -5z m-142 -5 c-25 -19 -40 -19
-24 0 7 8 20 15 28 15 13 0 12 -3 -4 -15z m71 -31 c20 -31 6 -54 -32 -54 -31
0 -39 24 -19 55 21 32 30 31 51 -1z m569 -19 c3 -8 1 -15 -3 -15 -5 0 -11 7
-15 15 -3 8 -1 15 3 15 5 0 11 -7 15 -15z m45 -30 c18 -10 13 -25 -8 -25 -11
0 -21 -7 -23 -16 -2 -10 -7 -4 -15 16 -10 27 -10 31 3 26 10 -4 14 2 15 22 0
25 1 26 9 6 5 -12 13 -25 19 -29z m-158 -6 c-5 -13 -10 -19 -10 -12 -1 15 10
45 15 40 3 -2 0 -15 -5 -28z m-565 -36 c-44 -41 -66 -20 -24 24 17 18 24 20
35 11 12 -9 10 -15 -11 -35z m-534 13 c-2 -10 2 -23 10 -28 8 -5 2 -6 -17 -2
-51 10 -55 13 -55 34 0 18 5 21 33 18 25 -2 31 -7 29 -22z m1195 -53 c-3 -10
-5 -4 -5 12 0 17 2 24 5 18 2 -7 2 -21 0 -30z m-1372 17 c3 -5 1 -10 -4 -10
-6 0 -11 5 -11 10 0 6 2 10 4 10 3 0 8 -4 11 -10z m789 -42 c13 -20 22 -39 18
-42 -3 -3 -25 -6 -48 -6 l-43 0 9 31 c9 30 30 63 36 56 2 -1 14 -19 28 -39z
m504 9 c17 -20 4 -56 -19 -50 -25 7 -42 30 -35 48 7 18 40 20 54 2z m-702 -35
c-17 -16 -18 -16 -5 5 7 12 15 20 18 17 3 -2 -3 -12 -13 -22z m-348 -4 c5 -7
13 -27 16 -44 9 -41 -10 -56 -66 -52 -40 3 -43 5 -46 35 -5 54 65 99 96 61z
m1421 -112 c33 -35 25 -68 -19 -78 -45 -10 -80 -2 -80 19 0 26 40 83 59 83 10
0 28 -11 40 -24z m-346 -46 c-4 -87 -33 -194 -48 -178 -11 10 -45 151 -45 184
0 40 7 46 55 42 l40 -3 -2 -45z m-673 -2 c0 -52 -32 -178 -46 -178 -14 0 -44
119 -44 174 0 36 0 36 45 36 44 0 45 -1 45 -32z m225 1 c-13 -58 -40 -131 -49
-132 -9 -2 -46 114 -46 146 0 14 9 17 51 17 l51 0 -7 -31z m206 14 c-10 -19
-51 -56 -56 -51 -1 2 -6 18 -10 36 l-7 32 42 0 c36 0 40 -2 31 -17z m367 -113
c3 -103 -7 -140 -26 -104 -5 11 -13 68 -17 129 l-8 109 24 -16 c22 -14 24 -23
27 -118z m-978 59 c0 -36 -2 -40 -15 -29 -15 13 -20 51 -8 63 15 16 23 4 23
-34z m55 -291 c3 -13 11 -62 19 -110 l13 -88 -33 0 c-33 0 -34 1 -34 43 0 73
13 177 21 177 5 0 11 -10 14 -22z m864 -65 c7 -49 13 -98 15 -111 4 -27 -13
-37 -49 -28 -30 8 -32 27 -10 139 8 43 15 81 15 83 0 2 4 4 9 4 5 0 14 -39 20
-87z m-420 -90 c1 -22 5 -23 84 -23 l84 0 12 56 c15 67 32 66 47 -3 l11 -51
-36 -6 c-48 -8 -291 -6 -266 2 16 6 20 17 22 62 4 81 14 94 29 35 6 -27 13
-60 13 -72z m-254 25 c28 -34 22 -48 -22 -48 -20 0 -23 5 -23 40 0 48 10 50
45 8z"/>
<path d="M1464 1801 c4 -6 16 -16 28 -22 15 -8 18 -8 14 0 -4 6 -16 16 -28 22
-15 8 -18 8 -14 0z"/>
<path d="M1401 1744 c7 -8 25 -22 40 -30 24 -12 30 -12 44 2 9 9 13 19 10 22
-3 4 -10 0 -15 -8 -8 -13 -16 -12 -51 7 -27 15 -37 17 -28 7z"/>
<path d="M1330 1675 c0 -6 11 -23 24 -40 23 -28 23 -31 8 -49 -13 -15 -10 -14
15 4 32 23 50 50 34 50 -5 0 -12 -6 -15 -12 -3 -9 -16 -1 -35 22 -17 19 -31
30 -31 25z"/>
<path d="M1250 1631 c0 -6 5 -13 10 -16 6 -3 10 1 10 9 0 9 -4 16 -10 16 -5 0
-10 -4 -10 -9z"/>
<path d="M1280 1630 c0 -5 5 -10 11 -10 5 0 7 5 4 10 -3 6 -8 10 -11 10 -2 0
-4 -4 -4 -10z"/>
<path d="M2091 1734 c0 -11 3 -14 6 -6 3 7 2 16 -1 19 -3 4 -6 -2 -5 -13z"/>
<path d="M196 1725 c-5 -13 29 -37 58 -42 11 -2 26 -9 34 -16 12 -10 14 -9 10
3 -2 8 -14 19 -26 25 -12 5 -22 15 -22 21 0 16 -48 24 -54 9z"/>
</g>
</svg>
